<svg id="Layer_2" data-name="Layer 2" xmlns="http://www.w3.org/2000/svg" viewBox="0 0 491.26 381.829"><defs><style>.cls-1{fill:#fff;}</style></defs><path class="cls-1" d="M449.474,350.31q.158.8.239,1.44a9.261,9.261,0,0,1,.08,1.12,6.566,6.566,0,0,1-1.52,4.16,4.628,4.628,0,0,1-3.759,1.92,3.956,3.956,0,0,1-1.44-.16q0,.8-1.441.72t-2.4-.08l-1.279-.32a5.807,5.807,0,0,1-3.681-1.12,5.827,5.827,0,0,0-3.679-1.12,8.47,8.47,0,0,1-1.921.16h-1.04a7,7,0,0,1-1.36-.16,14.472,14.472,0,0,0-6.719,2.72l-.321.16q-.48,0-1.679,1.04t-2.56,2.4a21.116,21.116,0,0,0-2.321,2.72,4.283,4.283,0,0,0-.96,2q-1.121,1.92-1.84,3.36a20.979,20.979,0,0,0-1.279,3.28,12.79,12.79,0,0,0-.56,3.76v1.04a4.92,4.92,0,0,0,.159,1.2v.16a3.709,3.709,0,0,0,.72,1.6q.72,1.122,1.2,1.92a23.412,23.412,0,0,0,4.56,4.8,44.785,44.785,0,0,0,4.881,3.12q2.718,1.523,6.559,3.6a107.847,107.847,0,0,1,9.6,6.08l.48.32q1.118,1.12,2.8,2.8a25.26,25.26,0,0,1,3.279,4.16,25.576,25.576,0,0,1,2.721,5.92,26.263,26.263,0,0,1,1.119,8.08,27.608,27.608,0,0,1-.24,3.6,14.73,14.73,0,0,1-1.04,3.76l-5.12,7.2a16.432,16.432,0,0,1-5.04,2.4,57.776,57.776,0,0,1-6.639,1.6,63.977,63.977,0,0,1-7.04.88q-3.522.24-6.241.24a19.866,19.866,0,0,1-5.12-.64l-.32-.16.161.16-.8-.16q-2.241-.323-4.56-.8a14.793,14.793,0,0,1-3.28-.96h-.48q-6.88-1.92-9.92-2.72a13.3,13.3,0,0,1-3.359-1.12l-.641-.48q-.16.157-.879-.72a2.442,2.442,0,0,0-2-.88.684.684,0,0,0-.321.08.734.734,0,0,1-.32.08l-1.12-.32c-.319-.215-.64-.427-.96-.64a1.539,1.539,0,0,0-.8-.32l-1.6-2.24.48-2.08q.8-1.6,1.52-3.2a11.818,11.818,0,0,1,1.92-2.96,9.067,9.067,0,0,1,3.2-2.24,13.544,13.544,0,0,1,5.359-.88,10.307,10.307,0,0,1,4.4.8,7.289,7.289,0,0,0,3.12.8l1.44.48q1.119.322,3.28,1.04a51.145,51.145,0,0,0,6.64,1.52l.8.32q2.076,1.282,6.88,1.28a4.706,4.706,0,0,0,2.879-2.24,15.243,15.243,0,0,1,2.56-3.04v-.16a6.94,6.94,0,0,1-1.359-1.52q-1.2-1.519-1.841-1.52a.141.141,0,0,0-.159.16l-.48-.32q-.482-.318-1.841-1.2a28.236,28.236,0,0,0-2.639-1.52l-2.08-1.76c.105,0-.216-.265-.96-.8a2.91,2.91,0,0,1-1.281-2.08,18.759,18.759,0,0,0-4.48-3.2,67.6,67.6,0,0,1-7.52-5.12l-.48-.32q-2.56-2.4-4.16-4.16a25.753,25.753,0,0,1-2.8-3.68,21.274,21.274,0,0,1-2.08-4.56q-.88-2.64-2-6.96v-1.12q.158-.8.241-1.36a5.825,5.825,0,0,1,.239-1.04l-.159-.32v-1.28q.157-.318,1.119-4.32t3.04-10.24a6.74,6.74,0,0,1,1.68-3.44q1.357-1.518,2.161-2.32l.319-.96q.32-.318.32-.48a1.239,1.239,0,0,1,.16-.48,8.867,8.867,0,0,1,2.081-2.8,48.941,48.941,0,0,1,6.239-4.4,63.121,63.121,0,0,1,8.881-5.6,32.309,32.309,0,0,1,6.639-2.48q3.037-.72,6-1.12t6.96-1.36h.48a1.813,1.813,0,0,1,.8.16,4.2,4.2,0,0,1,1.279-.16,3.593,3.593,0,0,1,1.12.16,2.252,2.252,0,0,1,.96-.16,8.586,8.586,0,0,1,5.52,2,40.492,40.492,0,0,1,4.88,4.72l.8,1.28.159,1.44C448.994,347.645,449.258,349.03,449.474,350.31Z" transform="translate(-240.964 -322.005)"/><path class="cls-1" d="M311.8,524.106a13.749,13.749,0,0,1-.077,1.473c-.054.465-.131.957-.233,1.472a2.2,2.2,0,0,0-.155-.929,9.421,9.421,0,0,1-.078,1.317q-.079.545-.233,1.317c.206-.2.311-.36.311-.464a1.7,1.7,0,0,0-.155.774,2.943,2.943,0,0,1-.156.931,20.42,20.42,0,0,1-5.346,9.221,56.8,56.8,0,0,1-9.611,7.906,87.507,87.507,0,0,1-11.315,6.354q-5.812,2.715-10.463,4.418a7.751,7.751,0,0,1-.852.388,2.094,2.094,0,0,0-.7.7q.151-.153-1.085.93t-2.79,2.635q-1.552,1.553-2.945,3.177a6.2,6.2,0,0,0-1.55,2.558,106.313,106.313,0,0,1-3.565,12.942q-2.173,6.279-4.8,12.943l-.62.93q-1.243,1.86-3.178,4.5a5.6,5.6,0,0,1-4.572,2.635,4.648,4.648,0,0,1-3.875-1.782,11.289,11.289,0,0,1-2.015-4.108,20.175,20.175,0,0,1-.7-4.5q-.079-2.172-.077-3.1a107.067,107.067,0,0,1,2.712-23.638q2.711-12.009,5.348-23.637.617-2.943,1.162-6.045a27.4,27.4,0,0,1,1.628-5.734,56.506,56.506,0,0,0,1.86-5.658,22.244,22.244,0,0,0,.775-5.813,18.745,18.745,0,0,0-.465-3.875,18.69,18.69,0,0,1-.466-3.875q0-2.012,2.326-4.185a29.857,29.857,0,0,1,5.58-4.03,36.573,36.573,0,0,1,6.82-3.022,20.432,20.432,0,0,1,6.2-1.163,25.577,25.577,0,0,1,2.79.156,26.5,26.5,0,0,0,2.945.154A34.379,34.379,0,0,1,289.943,500a43.794,43.794,0,0,1,10.154,4.5,29.317,29.317,0,0,1,7.9,6.9,13.968,13.968,0,0,1,3.178,8.834v.775a5.032,5.032,0,0,0,.31,1.551A5.154,5.154,0,0,1,311.8,524.106Zm-14.26,2.48a5.458,5.458,0,0,0-1.24-3.332,12.273,12.273,0,0,0-3.178-2.867,22.786,22.786,0,0,0-4.185-2.093,15.471,15.471,0,0,0-4.262-1.007h.155c-.519-.1-.983-.18-1.4-.233a11.468,11.468,0,0,0-1.394-.077q-4.65,0-5.813,1.162t-1.317,4.108a106.608,106.608,0,0,1-1.938,12.554q-1.319,6.046-2.558,12.555a43.512,43.512,0,0,0,9.611-3.875,66.162,66.162,0,0,0,8.68-5.734q1.083-.932,2.558-2.093a32.257,32.257,0,0,0,2.79-2.481,16.091,16.091,0,0,0,2.247-2.789,8.95,8.95,0,0,0,1.24-3.023Z" transform="translate(-240.964 -322.005)"/><path class="cls-1" d="M580.455,325.622c.122.793.218,1.527.285,2.207s.1,1.417.114,2.208q-.125,3.405-.5,6.808t-.843,6.812a23.852,23.852,0,0,1-3.533,9.058q-2.747,4.29-5.073,8.23-4.32,7.709-9.233,15a159.739,159.739,0,0,1-10.606,14q-2.008,2.41-3.845,4.813l-3.676,4.81a30.428,30.428,0,0,1-4.943,5.253,13.775,13.775,0,0,0-4.253,6.093,12.563,12.563,0,0,1-2.242,4.026,6.058,6.058,0,0,0-1.562,3.846,9,9,0,0,0,1.329,4.062,24.157,24.157,0,0,1,2.019,4.734,2.094,2.094,0,0,0,1.131,1.854,7.147,7.147,0,0,0,2.477.9,22.06,22.06,0,0,0,2.641.3c.85.047,1.386.066,1.615.064a13.607,13.607,0,0,0,3.986-.65q1.944-.62,3.892-1.413t3.8-1.412a12.324,12.324,0,0,1,3.733-.645,8.944,8.944,0,0,1,5.381,1.882q2.66,1.921,2.722,6.509a2.513,2.513,0,0,1-1.5,2.231,6.006,6.006,0,0,1-2.879.889,6.106,6.106,0,0,0-3.585-1.141,10.071,10.071,0,0,0-2.63.375q-1.271.354-2.625.715-5.592,1.435-10.668,3.2a34.79,34.79,0,0,1-11.026,1.849,41.856,41.856,0,0,1-5.359-.267,15.638,15.638,0,0,1-5.035-1.462,10.07,10.07,0,0,1-3.438-2.673q-1.385-1.683-2.6-3.451a30.813,30.813,0,0,0-2.336-3.028,3.233,3.233,0,0,0-2.482-1.242,8.265,8.265,0,0,0-3.728.9q-1.685.874-3.458,2a31.848,31.848,0,0,1-3.629,2,9.312,9.312,0,0,1-3.9.9c-.112,0-.511-.05-1.192-.154a12.764,12.764,0,0,1-2.218-.566,8.32,8.32,0,0,1-2.226-1.16,2.5,2.5,0,0,1-1.048-2.11,3.433,3.433,0,0,1,1.4-3.25,19.664,19.664,0,0,0,2.274-1.561q4.389-2.437,8.01-4.869a68.533,68.533,0,0,0,7.486-5.882,36.533,36.533,0,0,0,5.78-6.283,33.318,33.318,0,0,0,3.4-6.167q1.317-3.162,2.463-6.494t2.794-7.094a10.163,10.163,0,0,1,1.162-2.055,3.74,3.74,0,0,0,.822-2.052,2.534,2.534,0,0,0-.182-.933,2.481,2.481,0,0,1-.183-.932.984.984,0,0,1,.16-.683q6.437-14.369,13.556-28.491a147.1,147.1,0,0,1,17.152-26.5q3.844-4.81,8.163-6.147a32.7,32.7,0,0,1,9.247-1.4,19.243,19.243,0,0,1,5.279.608A6.853,6.853,0,0,1,580.455,325.622Zm-16.961,28.112a7.9,7.9,0,0,0,.8-3.581,8.8,8.8,0,0,0-.632-2.712c-.414-1.125-1.072-1.685-1.978-1.672q-1.871.2-3.2,2.593a47.8,47.8,0,0,1-3.666,5.49A173.367,173.367,0,0,0,545,369.032a131.732,131.732,0,0,0-7.94,16.344q-.825,2.051-1.98,4.362t-2.234,4.535q-1.079,2.226-1.815,4.1a8.552,8.552,0,0,0-.723,3.07,4.845,4.845,0,0,0,1.6-1.126l1.258-1.292q.165-.169,2.5-3.435t5.257-7.3q2.916-4.033,5.257-7.3t2.5-3.433q3.171-4.291,5.094-6.785t3.087-4.293a31.5,31.5,0,0,0,1.91-3.341,36.235,36.235,0,0,0,1.563-3.931,18.507,18.507,0,0,1,1.249-1.887q.416-.516.584-.773a7.994,7.994,0,0,0,.415-.771Q562.834,355.274,563.494,353.734ZM530.38,419.3l0-.34Z" transform="translate(-240.964 -322.005)"/><path class="cls-1" d="M465.129,464.39a31.418,31.418,0,1,0,31.418,31.418A31.418,31.418,0,0,0,465.129,464.39Zm14.643,35.546q-.874.564-2.086,1.211t-2.564,1.269q-1.353.621-2.311,1.015-.621.282-.986.423c-.246.094-.367.46-.367,1.1a2.663,2.663,0,0,0,.338,1.127q.339.677.761,1.494t.789,1.662a4.107,4.107,0,0,1,.367,1.635,3.03,3.03,0,0,1-.17.958,1.815,1.815,0,0,1,.113-.2.351.351,0,0,0,.057-.2,1.79,1.79,0,0,1-.423,1.183,4.152,4.152,0,0,1-1.015.874,5.045,5.045,0,0,1-1.3.564,4.779,4.779,0,0,1-1.268.2,2.775,2.775,0,0,1-1.438-.761,5.955,5.955,0,0,1-1.155-1.437q-.284-.508-.7-1.438t-.789-1.86q-.368-.93-.676-1.606a2.368,2.368,0,0,0-.367-.676,3,3,0,0,0-.986.309c-.471.207-1.024.433-1.663.677s-1.316.47-2.029.676a7.67,7.67,0,0,1-2.142.31,10.138,10.138,0,0,1-1.607-.141,6.074,6.074,0,0,1-1.691-.535,5.445,5.445,0,0,1-1.493-1.071,4.2,4.2,0,0,1-1.015-1.8q0-.056-.507-.2a4.528,4.528,0,0,1-.62-.2,3.291,3.291,0,0,1-1.494-1.409,4.245,4.245,0,0,1-.479-2.029,3.946,3.946,0,0,1,.535-2,8.822,8.822,0,0,1,1.3-1.719,15.974,15.974,0,0,1,1.664-1.494q.9-.7,1.69-1.381A11.23,11.23,0,0,1,456.154,493q1.155-.62,2.283-1.3-2.029,0-2.029-2.142a1.789,1.789,0,0,1,.056-.479,1.55,1.55,0,0,0,.057-.423,1.762,1.762,0,0,0-.141-.676q-.141-.339-.254-.676a8.833,8.833,0,0,1-.282-1.748q-.055-.9-.056-1.747a5.947,5.947,0,0,1,.141-1.381,2.554,2.554,0,0,1,.507-1.043,4.185,4.185,0,0,1,1.043-.874,12.55,12.55,0,0,1,1.747-.873q.452-.169,1.156-.395t1.381-.479q.677-.253,1.268-.536a2.335,2.335,0,0,0,.818-.563q.788-1.015,1.8-2.17t2.114-2.2a20.03,20.03,0,0,1,2.17-1.8,7.194,7.194,0,0,1,1.973-1.043.6.6,0,0,0-.091.009c-.044.015-.091.033-.135.047a.251.251,0,0,1,.135-.047c.3-.1.6-.2.908-.319a3.145,3.145,0,0,1,1.1-.2,2.2,2.2,0,0,1,1.38.508,5.384,5.384,0,0,1,1.156,1.268,7.027,7.027,0,0,1,.817,1.691,5.79,5.79,0,0,1,.31,1.832,3.408,3.408,0,0,1-.028.395,3.589,3.589,0,0,0-.028.45,1.55,1.55,0,0,0,.056.423,1.561,1.561,0,0,1,.057.423,2.755,2.755,0,0,1-.282,1.127,2.625,2.625,0,0,0-.282.846,1.649,1.649,0,0,0,.2.845,4.883,4.883,0,0,0,.451.648,3.849,3.849,0,0,1,.451.7,2.6,2.6,0,0,1,.2,1.127,1.488,1.488,0,0,1-.873,1.41,13.163,13.163,0,0,1-1.494.676,5.963,5.963,0,0,0-2.029.817,7.282,7.282,0,0,1-1.8.874,3.749,3.749,0,0,0-.789.508,8.041,8.041,0,0,0-1.015.958,6.366,6.366,0,0,0-.873,1.24,2.714,2.714,0,0,0-.367,1.3c0,.113.113.217.338.31s.47.207.733.339a3.744,3.744,0,0,1,.733.479.856.856,0,0,1,.338.676,2.792,2.792,0,0,1-.225,1.015,6.741,6.741,0,0,0-.338,1.07,1.014,1.014,0,0,1-.254.339l-.282.225a1.241,1.241,0,0,0-.254.282.916.916,0,0,0-.112.507.4.4,0,0,0,.169.31.4.4,0,0,1,.169.31.838.838,0,0,1-.113.423.687.687,0,0,0-.113.31,2.306,2.306,0,0,0,.282,1.015,9.45,9.45,0,0,1,1.663-.2,4.351,4.351,0,0,0,1.719-.422,2.579,2.579,0,0,0,.508.056,3.46,3.46,0,0,0,.676.056.162.162,0,0,0,.085-.042l-.082-.014h-.059c-.038,0-.245-.037-.62-.113.222.023.452.073.679.113h.11c-.01.009-.019.007-.028.014a10.743,10.743,0,0,1,1.578.409,6.2,6.2,0,0,0,1.888.423,9.567,9.567,0,0,1,1.043-.057h1.043l.338,1.353Q480.646,499.372,479.772,499.936Z" transform="translate(-240.964 -322.005)"/><path class="cls-1" d="M672.829,643.627A14.228,14.228,0,1,1,687.058,629.4,14.244,14.244,0,0,1,672.829,643.627Zm0-24.961A10.734,10.734,0,1,0,683.563,629.4,10.745,10.745,0,0,0,672.829,618.666Z" transform="translate(-240.964 -322.005)"/><path class="cls-1" d="M670.824,630.953v6.034h-3.185V621.912h6.623c3.287,0,5.056,1.811,5.056,4.139a3.608,3.608,0,0,1-2.19,3.566c.746.276,1.873,1.053,1.873,3.752v.744a12.043,12.043,0,0,0,.216,2.874h-3.089a10.59,10.59,0,0,1-.315-3.385v-.22c0-1.649-.416-2.429-2.845-2.429Zm0-2.594h2.732c1.785,0,2.473-.679,2.473-1.94,0-1.226-.8-1.912-2.395-1.912h-2.81Z" transform="translate(-240.964 -322.005)"/><path class="cls-1" d="M508.372,375.59a9.883,9.883,0,0,1,3.52,3.76,8.149,8.149,0,0,1,.8,3.12,3.639,3.639,0,0,1-.64,1.84,3.638,3.638,0,0,0-.64,1.84v.16l-.64,5.12-.64,1.44a12.2,12.2,0,0,0-1.92,3.92q-1.122,3.12-2.08,6.32a46.554,46.554,0,0,1-1.6,4.64q-.8,1.92-1.68,4.16a42.271,42.271,0,0,0-1.68,5.6q-.8,3.36-1.6,8.96l-2.08,13.44a9.437,9.437,0,0,0-.16,2.08v1.6a5.56,5.56,0,0,0,.32,1.76l-4.48,1.76a7.684,7.684,0,0,0-.72-1.04,22.773,22.773,0,0,0-2.32-2.32,12.639,12.639,0,0,1-3.68-5.44,25.511,25.511,0,0,1-.8-7.04q0-1.758.08-3.44t.24-2.96q-1.44,1.44-3.92,3.68t-6.32,5.76a12.327,12.327,0,0,1-4.64,5.12,119.527,119.527,0,0,1-10.88,6.08q-3.683,4.16-8,4.16a7.183,7.183,0,0,1-5.12-2.4,13.16,13.16,0,0,1-3.36-5.6,13.844,13.844,0,0,0-1.68-3.44q-1.04-1.523-2-3.12a24.784,24.784,0,0,1-1.68-3.36,11.935,11.935,0,0,1-.72-4.48,22.549,22.549,0,0,1,.4-3.84,43.289,43.289,0,0,1,1.36-5.28l1.44-1.6a4.34,4.34,0,0,0,1.92-1.28,10.494,10.494,0,0,0,1.28-2.24q.637-1.44,1.76-3.68a52.679,52.679,0,0,1,3.52-5.76l5.28-7.84a8.257,8.257,0,0,0,1.6-1.76q.638-.96,1.44-2.24a30.784,30.784,0,0,1,2.08-2.88,27.124,27.124,0,0,1,3.52-3.52,130.562,130.562,0,0,1,12.64-15.12q5.438-5.358,10.4-5.36,3.36,0,7.52,4a6.021,6.021,0,0,1,2.16.56,8.275,8.275,0,0,1,1.44,1.04,10.731,10.731,0,0,0,2.08,1.36,17.843,17.843,0,0,0,4.24,1.36,12.167,12.167,0,0,1,1.68.64A13.229,13.229,0,0,1,508.372,375.59Zm-21.92,19.68q2.88-7.2,3.2-7.2,0-1.92-1.6-1.92-1.283,0-4.96,3.2a15.428,15.428,0,0,0-3.04,2.32q-1.6,1.522-4,4.08t-5.68,6.4q-3.282,3.84-8.08,9.28-.48.8-2.16,3.28t-3.52,5.36q-1.842,2.88-3.28,5.52a9.875,9.875,0,0,0-1.44,3.6c0,.855.372,1.28,1.12,1.28a3.789,3.789,0,0,0,2.24-1.04q1.278-1.038,3.04-2.72t3.92-3.68q2.16-2,4.72-4.08c.32-.425.692-.88,1.12-1.36s1.04-1.12,1.84-1.92,1.865-1.84,3.2-3.12,3.065-2.985,5.2-5.12a6.376,6.376,0,0,1,.88-2.32,39.309,39.309,0,0,1,2.16-3.6q1.278-1.92,2.72-3.68A19.9,19.9,0,0,1,486.452,395.27Z" transform="translate(-240.964 -322.005)"/><path class="cls-1" d="M322.084,547.086a3.452,3.452,0,0,1,.695.084,8.935,8.935,0,0,1,1.544.67q1.16.589,3.244,1.843t5.791,3.435l1.236,2.177V556.8a17.835,17.835,0,0,1-.541,4.86,19.565,19.565,0,0,1-1.467,3.6,44.834,44.834,0,0,1-2.317,3.854q-1.389,2.1-3.088,5.277a55.72,55.72,0,0,0-1.622,6.2,29.889,29.889,0,0,1-1.313,4.775q-.927,2.6-2.857,7.036t-6.1,13.152l-2.007,1.34a6.106,6.106,0,0,1-4.556-2.011,19.928,19.928,0,0,1-3.4-4.941,36.3,36.3,0,0,1-2.395-6.115,37.856,37.856,0,0,1-1.235-5.53,3.734,3.734,0,0,0-1.236-2.177q-1.233-1.34-1.235-4.692a7.524,7.524,0,0,1,.463-3.015,14.173,14.173,0,0,1,1.081-1.927q.62-.92,1.313-2.094a11.538,11.538,0,0,0,1.159-3.519l.308-1q.771-2.679,1.313-4.273a15.771,15.771,0,0,1,1.39-3.015,22.191,22.191,0,0,1,2.394-3.183q1.542-1.76,4.17-4.608.615-.333.772-2.01l1.081-2.011a47.222,47.222,0,0,1,4.556-2.848A6.413,6.413,0,0,1,322.084,547.086Zm29.807-34.009a12.33,12.33,0,0,1,1.39,4.356,4.261,4.261,0,0,1-.618,2.093q-.62,1.092-1.7,3.435l.155-.168-.773,1.341a33.029,33.029,0,0,1-5.328,4.691,7.012,7.012,0,0,1-3.629,1.34,5.07,5.07,0,0,1-2.935-1.34q-1.7-1.34-3.86-6.7a52.656,52.656,0,0,1-1.777-5.445,20.491,20.491,0,0,1-.849-5.278,29.635,29.635,0,0,1,.309-3.686,28.039,28.039,0,0,1,1-4.607,11.921,11.921,0,0,1,1.93-3.854,3.767,3.767,0,0,1,3.089-1.591,4.64,4.64,0,0,1,2.239,1,38.6,38.6,0,0,1,5.019,4.859A48,48,0,0,1,349.5,508.3a11.605,11.605,0,0,1,1.622,2.764v.167a2.878,2.878,0,0,0,.231.754A6.79,6.79,0,0,0,351.891,513.077Z" transform="translate(-240.964 -322.005)"/><path class="cls-1" d="M442.87,546.906a4,4,0,0,1-.163,1.19,31.7,31.7,0,0,0-4.057,6.715q-2.275,4.677-4.464,9.86t-3.651,9.86a26.152,26.152,0,0,0-1.461,6.885q0,3.231,4.382,4.42v1.87c-.109,0-.434.313-.974.935s-1.136,1.3-1.785,2.04-1.245,1.387-1.785,1.955-.868.85-.974.85a2.489,2.489,0,0,1-2.029-1.36q-.894-1.363-2.272-3.57t-3.408-5.1a33.282,33.282,0,0,0-5.6-5.95q-9.091,7.14-13.228,10.8t-6.248,3.655q-.815,0-2.84-2.465a40.291,40.291,0,0,1-4.626-7.9q.324.342-.811-1.02t-2.6-3.4q-1.461-2.04-2.759-4.25a9.785,9.785,0,0,1-1.461-3.91,100.577,100.577,0,0,0,.487-11.73l-.811-.85q-1.461,1.7-3,3.57a31.483,31.483,0,0,0-2.84,4.08l-7.953,13.94q-2.274,3.06-3.976,5.78a64.659,64.659,0,0,1-3.976,5.61,80.945,80.945,0,0,1-5.68,6.375q-3.409,3.483-8.927,8.075-1.624-.171-2.11-4.25a22.9,22.9,0,0,0-1.38-6.12,14.216,14.216,0,0,0-1.7-3.06q-.813-1.02-1.379-1.615a2.763,2.763,0,0,1-.568-1.955q0-1.188,5.031-23.46a24.039,24.039,0,0,0,2.11-2.72q2.922-8.837,6.167-17.51t6.006-14.96a9.787,9.787,0,0,1,.486-1.105,31.065,31.065,0,0,1,1.786-3.315,26.209,26.209,0,0,1,2.434-3.4,3.481,3.481,0,0,1,2.435-1.53,5.073,5.073,0,0,1,2.272.68,10.519,10.519,0,0,1,2.434,1.785,13.452,13.452,0,0,1,1.948,2.38A4.4,4.4,0,0,1,370.16,526a18.68,18.68,0,0,1-1.623,4.25,34.351,34.351,0,0,0-1.785,4.675q-.815,2.637-1.866,6.29t-2.76,8.755q-1.7,5.1-4.3,11.9v1.53c0,.114.053.17.162.17h.649a5.068,5.068,0,0,0,4.058-2.38q1.3-2.55,1.866-3.825a23.836,23.836,0,0,1,1.217-2.38q.646-1.1,1.7-2.55t3.165-4.08q2.108-2.634,5.762-7.14t9.656-11.815a6.008,6.008,0,0,0,4.139-1.7,5.4,5.4,0,0,1,3.489-1.7,25.207,25.207,0,0,1,5.924,2.3,17.307,17.307,0,0,1,4.058,3.315,7.515,7.515,0,0,1,1.866,5.27v.85l-8.926,32.64q0,2.04,1.785,2.04.647,0,3.165-2.465t5.437-5.7q2.921-3.228,5.436-6.375t3.328-4.335q1.3-4.08,2.272-6.375a37.894,37.894,0,0,1,2.11-4.25c.755-1.3,1.46-1.955,2.11-1.955.431,0,.649.085.649.255s.215.255.649.255a3.577,3.577,0,0,0,1.136-.34q.81-.339,1.785-.68c.649-.226,1.271-.451,1.867-.68a4.274,4.274,0,0,1,1.379-.34q4.056,1.53,6.492,2.635a35.782,35.782,0,0,1,4.545,2.465C442.164,545.434,442.87,546.226,442.87,546.906Z" transform="translate(-240.964 -322.005)"/><path class="cls-1" d="M538.194,563.606a3.46,3.46,0,0,1,2.55,1.02,3.909,3.909,0,0,1,1.021,2.889q0,3.571-3.4,8.16a43.774,43.774,0,0,1-8.755,8.67,54.378,54.378,0,0,1-12.07,6.886,34.036,34.036,0,0,1-13.174,2.8,22.023,22.023,0,0,1-12.241-3.91A43.309,43.309,0,0,1,481.5,580.1a53.2,53.2,0,0,1-7.48-13.514,40.8,40.8,0,0,1-2.805-14.535,13.968,13.968,0,0,1,.341-2.805,28.762,28.762,0,0,1,.85-3.146q.51-1.529,1.019-2.719a11.574,11.574,0,0,1,.85-1.7A13.338,13.338,0,0,0,477.419,537a28.776,28.776,0,0,1,2.806-5.355,13.529,13.529,0,0,1,3.824-4.165,19.759,19.759,0,0,0,4.165-4q1.53-1.869,2.975-3.4a28.235,28.235,0,0,1,3.06-2.805q1.614-1.275,3.485-2.55t4.25-2.635a6.323,6.323,0,0,0,1.955-2.38,2.7,2.7,0,0,1,2.636-1.53,5.323,5.323,0,0,1,2.209.68q1.359.681,3.316,1.445t4.589,1.53a22.382,22.382,0,0,0,6.205.765h-.169a21.1,21.1,0,0,1,6.459,2.04,28.5,28.5,0,0,1,6.715,4.5,27.861,27.861,0,0,1,5.27,6.29,13.7,13.7,0,0,1,2.125,7.225,18.363,18.363,0,0,1-3.315,11.05,27.362,27.362,0,0,1-8.33,7.565A39.512,39.512,0,0,1,520.6,555.7a49.251,49.251,0,0,1-11.476,1.445q-2.55,0-5.355-.17a23.985,23.985,0,0,1-5.185-.85,7.455,7.455,0,0,1-1.529-.6,3.532,3.532,0,0,0-1.531-.425c-.228,0-.594.425-1.105,1.274s-1.078,1.871-1.7,3.061a27.209,27.209,0,0,0-1.616,3.74,10.753,10.753,0,0,0-.68,3.485,6.644,6.644,0,0,0,.85,3.57,7.174,7.174,0,0,0,2.125,2.21,11.006,11.006,0,0,0,2.975,1.36q1.7.51,3.57,1.02a7.036,7.036,0,0,1,2.975,1.53q1.1,1.02,4,1.02a25.7,25.7,0,0,0,9.01-1.785,66.653,66.653,0,0,0,8.5-3.826q1.7-1.02,3.655-2.379t3.74-2.635a35.479,35.479,0,0,1,3.486-2.21A6.288,6.288,0,0,1,538.194,563.606Zm-27.2-33.49a30.025,30.025,0,0,0-9.18,7.99q-3.57,4.761-7.31,9.69c.566.229,1.161.454,1.785.68a5.156,5.156,0,0,0,1.786.34,19.172,19.172,0,0,0,3.824-1.53,45.58,45.58,0,0,0,7.055-4.165,38.6,38.6,0,0,0,6.8-6.12,11.056,11.056,0,0,0,3.06-7.395,2.135,2.135,0,0,0-.935-1.615,2.877,2.877,0,0,0-1.784-.765,4,4,0,0,0-2.636,1.105A15.616,15.616,0,0,1,510.994,530.116Z" transform="translate(-240.964 -322.005)"/><path class="cls-1" d="M468.848,540.851q-2.3-1.275-3.57-1.87a10.235,10.235,0,0,0-1.7-.68,4,4,0,0,0-.765-.085,7.5,7.5,0,0,0-3.145.85,53.13,53.13,0,0,0-5.015,2.89l-1.19,2.04c-.114,1.134-.4,1.814-.85,2.04q-2.892,2.894-4.59,4.675a22.791,22.791,0,0,0-2.635,3.23,15.407,15.407,0,0,0-1.53,3.06q-.6,1.617-1.445,4.335l-.34,1.02a11.052,11.052,0,0,1-1.275,3.57q-.765,1.191-1.445,2.125a14.015,14.015,0,0,0-1.19,1.955,7.1,7.1,0,0,0-.51,3.06q0,3.4,1.36,4.76a3.718,3.718,0,0,1,1.36,2.21,35.82,35.82,0,0,0,1.36,5.61,35.146,35.146,0,0,0,2.635,6.205,20.266,20.266,0,0,0,3.74,5.015,7,7,0,0,0,5.015,2.04l2.21-1.36q4.59-8.841,6.715-13.345t3.145-7.14a28.472,28.472,0,0,0,1.445-4.845,53,53,0,0,1,1.785-6.29q1.869-3.227,3.4-5.355a44.89,44.89,0,0,0,2.55-3.91,19,19,0,0,0,1.615-3.655,16.717,16.717,0,0,0,.6-4.93v-1.53l-1.36-2.21Q471.143,542.13,468.848,540.851Z" transform="translate(-240.964 -322.005)"/><path class="cls-1" d="M607.518,508.875a20.4,20.4,0,0,1,5.355,4.76,10.372,10.372,0,0,1,2.295,6.63,10.857,10.857,0,0,1-.34,2.805q-.342,1.275-.68,2.635-1.362,6.291-3.059,12.835t-3.231,13.26q-1.528,6.717-2.55,13.515a91.714,91.714,0,0,0-1.02,13.6,19.5,19.5,0,0,0,1.275,6.205q1.275,3.652,2.465,6.714a18.861,18.861,0,0,0,.765,1.786,5.167,5.167,0,0,1,.6,1.955,3.641,3.641,0,0,1-1.361,2.975,4.326,4.326,0,0,1-2.72,1.105,3.737,3.737,0,0,1-.935-.17,4.609,4.609,0,0,0-1.274-.17,2.775,2.775,0,0,0-.851.17,3.275,3.275,0,0,1-1.02.17,8.745,8.745,0,0,1-6.714-2.635,35.047,35.047,0,0,1-4.335-5.695,10.021,10.021,0,0,1-1.106-1.616q-.765-1.273-1.53-2.719t-1.444-2.72a4.743,4.743,0,0,1-.681-1.785v-2.21a19.7,19.7,0,0,0,.511-4.76q0-2.55-.17-4.846t-.17-4.674a21.922,21.922,0,0,1,.51-4.59q1.7-6.63,3.4-13.175a129.856,129.856,0,0,0,2.721-13.345q-7.142,8.841-13.941,19.04a120.617,120.617,0,0,0-11.22,20.909q-.852,2.042-2.719,5.611a61.259,61.259,0,0,1-4.421,7.139,36.051,36.051,0,0,1-5.44,6.121,8.959,8.959,0,0,1-5.95,2.549,2.6,2.6,0,0,1-2.21-1.189,9.789,9.789,0,0,1-1.36-2.89,18.062,18.062,0,0,1-.68-3.315q-.171-1.617-.34-2.465a10.049,10.049,0,0,0-1.19-3.145q-.852-1.446-1.7-2.635a15.364,15.364,0,0,1-1.446-2.465,6.531,6.531,0,0,1-.594-2.8,14.46,14.46,0,0,1,.594-4.08q.594-2.04.935-3.74.512-2.208.936-5.015t1.019-5.525q.6-2.718,1.19-5.015a10.644,10.644,0,0,1,1.446-3.485,12.02,12.02,0,0,0,2.974-5.27,48.708,48.708,0,0,0,1.446-7.055q.51-3.825.934-7.82a53.691,53.691,0,0,1,1.276-7.395,28.216,28.216,0,0,1,1.784-5.525,39.053,39.053,0,0,1,2.89-5.525,20.522,20.522,0,0,1,3.485-4.25,5.616,5.616,0,0,1,3.74-1.7,8.544,8.544,0,0,1,3.655.935,13.653,13.653,0,0,1,3.486,2.38,13.338,13.338,0,0,1,2.55,3.315,7.494,7.494,0,0,1,1.019,3.57,5.992,5.992,0,0,1-.51,2.38,77.528,77.528,0,0,0-2.889,8.16q-1.193,4.08-2.551,8.33a8.228,8.228,0,0,1,2.125-2.295q1.275-.931,2.466-1.785l3.654-3.655q1.785-1.785,3.485-3.655,1.188-1.359,2.55-3.23t2.806-3.57a38.027,38.027,0,0,1,2.889-3.06,8.15,8.15,0,0,1,2.975-1.87,3.858,3.858,0,0,0,2.125-.595q.933-.594,1.87-1.275c.622-.451,1.276-.877,1.955-1.275a4.325,4.325,0,0,1,2.21-.6,10,10,0,0,1,4,.935Q605.647,508.026,607.518,508.875Z" transform="translate(-240.964 -322.005)"/><path class="cls-1" d="M681.075,514.485a3.059,3.059,0,0,1-1.615,1.87q-1.275.681-2.3,1.19a4.159,4.159,0,0,0,.425.68,1.137,1.137,0,0,1,.255.68,2.862,2.862,0,0,1-1.275,2.21A13.858,13.858,0,0,1,673.6,522.9a27.821,27.821,0,0,1-3.4,1.275,11.692,11.692,0,0,0-2.55,1.02A13.527,13.527,0,0,1,660,530.21q-5.1,1.446-9.69,2.975a44.957,44.957,0,0,0-6.8,3.061,80.632,80.632,0,0,1-4.845,10.029,59.171,59.171,0,0,0-4.675,10.37q-.681,2.04-2.04,5.1t-2.805,6.205q-1.446,3.145-2.465,6.034a14.78,14.78,0,0,0-1.02,4.591v2.974a4.707,4.707,0,0,1-.85,2.805.478.478,0,0,1,.17-.34,8.289,8.289,0,0,0-1.445,2.975q-.765,2.295-1.615,4.845a25.792,25.792,0,0,1-1.955,4.5q-1.107,1.953-2.3,1.954a4.27,4.27,0,0,1-3.4-1.189,6.275,6.275,0,0,1-1.36-2.975,16.039,16.039,0,0,1-.255-3.74q.084-1.957.085-3.484a11.318,11.318,0,0,1,.255-2.381,12.173,12.173,0,0,0,.255-2.55,2.425,2.425,0,0,0-.425-1.444,3.078,3.078,0,0,1-.425-1.785,7.715,7.715,0,0,1,.34-2.295,7.246,7.246,0,0,0,.34-2.125,4.74,4.74,0,0,0-.17-1.276,3.6,3.6,0,0,1-.17-.935,44.462,44.462,0,0,1,1.105-9.946,96.667,96.667,0,0,1,2.719-9.6q1.615-4.757,3.4-9.18t3.145-8.5a3.38,3.38,0,0,0-.85-1.19,22.009,22.009,0,0,0-2.04-2.21q-1.7-1.7-3.57-3.74t-3.315-3.91a5.921,5.921,0,0,1-1.445-2.55,4.715,4.715,0,0,1,1.36-3.74,7.311,7.311,0,0,1,2.975-1.615,11.907,11.907,0,0,1,4.335-.085,15.781,15.781,0,0,1,4,.17,24.049,24.049,0,0,0,4.165.34q1.7,0,3.145-2.975a59.489,59.489,0,0,0,2.8-7.055q1.359-4.08,2.72-8.33a49.711,49.711,0,0,1,2.72-6.97,13.393,13.393,0,0,0,1.53-4.42q.51-2.718,1.19-5.185a18.372,18.372,0,0,1,1.7-4.25,3.309,3.309,0,0,1,3.06-1.785,3.986,3.986,0,0,1,2.295.765,3.575,3.575,0,0,0,1.955.765,4.616,4.616,0,0,0,1.275-.17,4.087,4.087,0,0,1,1.105-.17,14.577,14.577,0,0,1,6.63,1.785,11.185,11.185,0,0,1,2.8,2.125,3.889,3.889,0,0,1,1.105,2.72,8.75,8.75,0,0,1-.51,1.445q-.51,1.275-1.275,2.975t-1.615,3.57q-.854,1.872-1.53,3.4-2.213,4.932-3.91,9.945t-3.74,9.945a12.317,12.317,0,0,0,2.04.17h2.04a31.809,31.809,0,0,0,6.12-.6q3.06-.592,5.865-1.19t5.355-1.19a20.444,20.444,0,0,1,4.589-.6q.851,0,1.616,1.275T681.075,514.485Z" transform="translate(-240.964 -322.005)"/><path class="cls-1" d="M727.634,510.421a10.5,10.5,0,0,1,3.74,4,8.676,8.676,0,0,1,.85,3.315,3.875,3.875,0,0,1-.68,1.955,3.859,3.859,0,0,0-.68,1.955v.17l-.681,5.44-.679,1.53a12.97,12.97,0,0,0-2.04,4.165q-1.191,3.317-2.21,6.716a49.518,49.518,0,0,1-1.7,4.929q-.853,2.041-1.786,4.42a45.227,45.227,0,0,0-1.784,5.95q-.854,3.57-1.7,9.52l-2.21,14.28a10.077,10.077,0,0,0-.17,2.21v1.7a5.932,5.932,0,0,0,.34,1.871l-4.76,1.87a8.073,8.073,0,0,0-.765-1.106,24.222,24.222,0,0,0-2.465-2.465,13.435,13.435,0,0,1-3.91-5.78,27.079,27.079,0,0,1-.85-7.479c0-1.247.026-2.465.085-3.656s.141-2.236.255-3.144q-1.531,1.529-4.165,3.909t-6.715,6.12a13.088,13.088,0,0,1-4.931,5.44,126.413,126.413,0,0,1-11.559,6.46q-3.913,4.419-8.5,4.42a7.634,7.634,0,0,1-5.441-2.549,14,14,0,0,1-3.569-5.951,14.686,14.686,0,0,0-1.785-3.655q-1.1-1.617-2.125-3.314a26.262,26.262,0,0,1-1.785-3.571,12.679,12.679,0,0,1-.765-4.759,24.018,24.018,0,0,1,.425-4.081,45.846,45.846,0,0,1,1.445-5.61l1.529-1.7a4.6,4.6,0,0,0,2.04-1.359,11.123,11.123,0,0,0,1.361-2.38q.677-1.531,1.87-3.91a55.933,55.933,0,0,1,3.74-6.121l5.61-8.33a8.771,8.771,0,0,0,1.7-1.87c.451-.68.962-1.471,1.53-2.38a32.685,32.685,0,0,1,2.21-3.06,28.74,28.74,0,0,1,3.74-3.74,138.622,138.622,0,0,1,13.43-16.065q5.776-5.694,11.05-5.695,3.57,0,7.99,4.25a6.378,6.378,0,0,1,2.295.595,8.767,8.767,0,0,1,1.53,1.105,11.38,11.38,0,0,0,2.21,1.445,18.969,18.969,0,0,0,4.5,1.445,13.078,13.078,0,0,1,1.785.68A14.056,14.056,0,0,1,727.634,510.421Zm-23.29,20.91q3.06-7.65,3.4-7.65,0-2.04-1.7-2.04-1.362,0-5.271,3.4a16.385,16.385,0,0,0-3.229,2.465q-1.7,1.617-4.25,4.335t-6.035,6.8q-3.488,4.08-8.585,9.86-.51.854-2.295,3.485t-3.74,5.7q-1.956,3.06-3.485,5.865a10.5,10.5,0,0,0-1.53,3.826c0,.908.395,1.359,1.189,1.359a4.024,4.024,0,0,0,2.381-1.105q1.359-1.1,3.23-2.89t4.165-3.909q2.295-2.124,5.014-4.335c.341-.452.737-.936,1.191-1.446s1.1-1.19,1.955-2.04,1.981-1.955,3.4-3.315,3.257-3.171,5.526-5.44a6.758,6.758,0,0,1,.935-2.464,41.388,41.388,0,0,1,2.295-3.826q1.357-2.04,2.89-3.91A21.065,21.065,0,0,1,704.344,531.331Z" transform="translate(-240.964 -322.005)"/><path class="cls-1" d="M369.086,624.724a5.26,5.26,0,0,1,2.478-5.22c7.374-4.436,10.993-3.474,12.154-2.912.818.395,8.739,9.227,7.915,12.425-.86,3.334,31.659,64.171,98.553,59.915,61.983-3.943,81-44.566,83.459-50.51A5.166,5.166,0,0,0,574,637.05c.47-3.947,3.562-24.667,16.951-27.437,11.75-2.431,14.713,7.14,15.435,11.2a5.246,5.246,0,0,1-.407,3.143c-4.743,10.187-36.587,72.53-108.3,78.936-69.807,6.235-116.649-54.658-125.834-67.7a11.7,11.7,0,0,1-2.03-5.165Z" transform="translate(-240.964 -322.005)"/><path class="cls-1" d="M487.737,703.834c-64.736,0-107.964-56.512-116.3-68.355a12.273,12.273,0,0,1-2.116-5.386l-.726-5.3a5.746,5.746,0,0,1,2.717-5.716c7.519-4.524,11.337-3.56,12.628-2.935.866.42,9.1,9.439,8.182,13-.184,1.067,4.682,11.894,15.977,24.464,12.712,14.147,40.272,37.478,82.06,34.827,62.148-3.953,81.075-45.479,83.029-50.2a4.65,4.65,0,0,0,.322-1.24c.494-4.157,3.655-25.035,17.345-27.867,4.091-.848,7.541-.347,10.25,1.487,3.938,2.668,5.311,7.48,5.779,10.112a5.728,5.728,0,0,1-.446,3.442A153.612,153.612,0,0,1,577.3,665.192c-22.453,22.634-49.227,35.484-79.578,38.195Q492.652,703.84,487.737,703.834Zm-106.569-87.25c-1.907,0-4.91.68-9.346,3.349a4.748,4.748,0,0,0-2.241,4.724l.726,5.3a11.285,11.285,0,0,0,1.942,4.944c8.289,11.767,51.252,67.928,115.49,67.931q4.868,0,9.892-.443c70.782-6.321,102.3-66.624,107.9-78.648a4.743,4.743,0,0,0,.367-2.844c-.44-2.477-1.721-7-5.355-9.46-2.476-1.677-5.665-2.126-9.485-1.337-13.02,2.694-16.077,22.97-16.557,27.007a5.6,5.6,0,0,1-.39,1.5c-1.353,3.271-6.761,14.826-19.538,26.188-16.5,14.677-38.154,22.964-64.351,24.63-44.573,2.839-73.028-23.1-86.025-38.817-8.817-10.661-13.457-20.122-13.045-21.722.734-2.844-6.871-11.4-7.657-11.855A5.319,5.319,0,0,0,381.168,616.584Z" transform="translate(-240.964 -322.005)"/></svg>