<svg id="Layer_1" data-name="Layer 1" xmlns="http://www.w3.org/2000/svg" viewBox="0 0 850.284 267.218"><defs><style>.cls-1{fill:#fff;}</style></defs><path class="cls-1" d="M864.087,389.387c-44.734,39.163-84.411,41.62-132.059,6.541-21.91-16.11-41.534-35.308-63.5-51.332-17-12.4-34.964-24.709-54.362-32.365-33.563-13.283-67.613-8.769-98.264,9.855-20.824,12.655-39.792,28.423-59.1,43.448-2.715,2.085-4.742,3.229-6.8,3.143-2.056.086-4.084-1.058-6.8-3.143-19.31-15.025-38.278-30.793-59.1-43.448-30.622-18.624-64.7-23.138-98.265-9.855-19.4,7.656-37.364,19.968-54.361,32.365-21.967,16.024-41.591,35.222-63.5,51.332-47.648,35.079-87.325,32.622-132.059-6.541q-5.527-4.844-11.055-9.655c6.656,36.849,21.025,69.9,42.22,99.894,27.052,38.278,62.53,65.7,107.064,80.755C278.235,595.573,409.723,546.526,450,453.945c40.278,92.581,171.766,141.628,275.859,106.436,44.534-15.055,80.012-42.477,107.064-80.755,21.195-29.994,35.564-63.045,42.22-99.894q-5.529,4.8-11.055,9.655" transform="translate(-24.858 -304.592)"/></svg>